<?xml version="1.0" encoding="UTF-8"?>
<svg xmlns="http://www.w3.org/2000/svg" xmlns:xlink="http://www.w3.org/1999/xlink" width="5pt" height="12pt" viewBox="0 0 5 12" version="1.1">
<g id="surface3">
<path fill="#b5b5b5" style=" stroke:none;fill-rule:nonzero;fill-opacity:1;" d="M 4.992188 0 L 4.808594 0 L 4.808594 0.390625 L 4.589844 0.390625 L 4.589844 0.132812 L 4.40625 0.132812 L 4.40625 0.390625 L 2.59375 0.390625 L 2.59375 0.128906 L 2.410156 0.128906 L 2.410156 0.390625 L 0.582031 0.390625 L 0.582031 0.132812 L 0.398438 0.132812 L 0.398438 0.390625 L 0.195312 0.390625 L 0.195312 0 L 0.015625 0 L 0.015625 0.632812 L 0.398438 0.632812 L 0.398438 1.121094 L 0.390625 1.121094 L 0.015625 1.097656 L 0.015625 1.351562 L 0.398438 1.371094 L 0.398438 1.660156 L 0.015625 1.679688 L 0.015625 1.933594 L 0.398438 1.914062 L 0.398438 2.445312 L 0.015625 2.445312 L 0.015625 2.6875 L 0.398438 2.6875 L 0.398438 3.339844 L 0.195312 3.339844 L 0.195312 3.078125 L 0.015625 3.078125 L 0.015625 3.84375 L 0.195312 3.84375 L 0.195312 3.582031 L 0.398438 3.582031 L 0.398438 4.246094 L 0.289062 4.246094 C 0.210938 4.25 0.132812 4.292969 0.0820312 4.363281 C 0.0273438 4.441406 -0.00390625 4.535156 0 4.632812 C 0 4.730469 0.03125 4.828125 0.0898438 4.90625 C 0.136719 4.972656 0.210938 5.011719 0.289062 5.011719 L 0.398438 5.011719 L 0.398438 5.640625 L 0.015625 5.644531 L 0.015625 5.824219 L 0.398438 5.863281 L 0.398438 6.585938 L 0.015625 6.625 L 0.015625 6.804688 L 0.398438 6.808594 L 0.398438 7.449219 L 0.289062 7.449219 C 0.210938 7.453125 0.132812 7.496094 0.0820312 7.566406 C 0.0273438 7.640625 -0.00390625 7.734375 0 7.832031 C 0 7.929688 0.03125 8.027344 0.0898438 8.101562 C 0.136719 8.171875 0.210938 8.210938 0.289062 8.214844 L 0.398438 8.214844 L 0.398438 8.734375 L 0.289062 8.734375 C 0.210938 8.738281 0.132812 8.78125 0.0820312 8.851562 C 0.0273438 8.925781 -0.00390625 9.019531 0 9.113281 C 0 9.214844 0.03125 9.308594 0.0898438 9.386719 C 0.136719 9.453125 0.210938 9.492188 0.289062 9.492188 L 0.398438 9.492188 L 0.398438 10.09375 L 0.289062 10.09375 C 0.210938 10.097656 0.132812 10.140625 0.0820312 10.210938 C 0.0273438 10.289062 -0.00390625 10.382812 0 10.480469 C 0 10.582031 0.03125 10.675781 0.0898438 10.753906 C 0.136719 10.820312 0.210938 10.859375 0.289062 10.859375 L 0.398438 10.859375 L 0.398438 11.578125 L 0.015625 11.578125 L 0.015625 11.820312 L 0.398438 11.820312 L 0.398438 12.007812 L 0.582031 12.007812 L 0.582031 11.820312 L 4.40625 11.820312 L 4.40625 12.007812 L 4.589844 12.007812 L 4.589844 11.820312 L 4.992188 11.820312 L 4.992188 11.1875 L 4.808594 11.1875 L 4.808594 11.578125 L 4.589844 11.578125 L 4.589844 10.859375 L 4.714844 10.859375 C 4.796875 10.855469 4.871094 10.8125 4.921875 10.742188 C 4.976562 10.667969 5.007812 10.578125 5.003906 10.480469 C 5.003906 10.382812 4.972656 10.285156 4.914062 10.210938 C 4.867188 10.140625 4.792969 10.101562 4.714844 10.097656 L 4.589844 10.097656 L 4.589844 9.492188 L 4.714844 9.492188 C 4.796875 9.488281 4.871094 9.445312 4.921875 9.375 C 4.976562 9.300781 5.007812 9.210938 5.003906 9.113281 C 5.003906 9.015625 4.972656 8.917969 4.914062 8.84375 C 4.867188 8.773438 4.792969 8.734375 4.714844 8.734375 L 4.609375 8.734375 L 4.609375 8.976562 L 4.714844 8.976562 C 4.746094 8.976562 4.773438 8.992188 4.789062 9.019531 C 4.8125 9.046875 4.824219 9.082031 4.824219 9.117188 C 4.824219 9.152344 4.8125 9.1875 4.789062 9.214844 C 4.773438 9.242188 4.746094 9.257812 4.714844 9.257812 L 4.589844 9.257812 L 4.589844 8.214844 L 4.714844 8.214844 C 4.796875 8.210938 4.871094 8.167969 4.921875 8.097656 C 4.980469 8.023438 5.011719 7.929688 5.007812 7.832031 C 5.007812 7.734375 4.976562 7.636719 4.917969 7.558594 C 4.871094 7.492188 4.796875 7.449219 4.71875 7.449219 L 4.59375 7.449219 L 4.59375 6.863281 L 4.992188 6.867188 L 4.992188 6.625 L 4.59375 6.632812 L 4.59375 6.359375 L 5.007812 6.308594 L 5.007812 6.152344 L 4.59375 6.101562 L 4.59375 5.820312 L 4.992188 5.820312 L 4.992188 5.582031 L 4.59375 5.585938 L 4.59375 5.011719 L 4.71875 5.011719 C 4.800781 5.007812 4.875 4.964844 4.925781 4.894531 C 4.980469 4.820312 5.007812 4.726562 5.003906 4.632812 C 5.003906 4.535156 4.972656 4.4375 4.914062 4.363281 C 4.867188 4.292969 4.792969 4.25 4.714844 4.25 L 4.589844 4.25 L 4.589844 3.582031 L 4.992188 3.582031 L 4.992188 3.339844 L 4.589844 3.339844 L 4.589844 2.6875 L 4.992188 2.6875 L 4.992188 2.445312 L 4.589844 2.445312 L 4.589844 1.671875 L 4.992188 1.648438 L 4.992188 1.378906 L 4.589844 1.355469 L 4.589844 0.632812 L 4.992188 0.632812 Z M 4.40625 10.859375 L 4.40625 11.578125 L 0.582031 11.578125 L 0.582031 10.859375 Z M 4.714844 10.339844 C 4.746094 10.339844 4.773438 10.355469 4.789062 10.378906 C 4.8125 10.40625 4.824219 10.441406 4.824219 10.476562 C 4.824219 10.515625 4.8125 10.546875 4.789062 10.574219 C 4.773438 10.601562 4.746094 10.617188 4.714844 10.617188 L 4.589844 10.617188 L 4.589844 10.339844 Z M 4.40625 10.339844 L 4.40625 10.617188 L 0.582031 10.617188 L 0.582031 10.339844 Z M 0.398438 10.339844 L 0.398438 10.617188 L 0.289062 10.617188 C 0.261719 10.617188 0.234375 10.601562 0.214844 10.574219 C 0.195312 10.550781 0.183594 10.515625 0.183594 10.480469 C 0.183594 10.445312 0.195312 10.410156 0.214844 10.382812 C 0.234375 10.359375 0.261719 10.34375 0.289062 10.339844 Z M 4.40625 9.492188 L 4.40625 10.09375 L 0.582031 10.09375 L 0.582031 9.492188 Z M 0.289062 9.253906 C 0.261719 9.253906 0.234375 9.238281 0.214844 9.210938 C 0.195312 9.183594 0.183594 9.148438 0.183594 9.113281 C 0.183594 9.078125 0.191406 9.042969 0.214844 9.015625 C 0.234375 8.988281 0.261719 8.972656 0.289062 8.972656 L 0.398438 8.972656 L 0.398438 9.253906 Z M 4.40625 8.214844 L 4.40625 9.253906 L 0.582031 9.253906 L 0.582031 8.214844 Z M 4.714844 7.691406 C 4.746094 7.691406 4.773438 7.707031 4.789062 7.734375 C 4.8125 7.761719 4.824219 7.796875 4.824219 7.832031 C 4.824219 7.867188 4.8125 7.902344 4.792969 7.929688 C 4.773438 7.957031 4.746094 7.972656 4.714844 7.972656 L 4.589844 7.972656 L 4.589844 7.691406 Z M 4.40625 7.691406 L 4.40625 7.976562 L 0.582031 7.976562 L 0.582031 7.695312 Z M 0.398438 7.691406 L 0.398438 7.976562 L 0.289062 7.976562 C 0.261719 7.972656 0.234375 7.957031 0.214844 7.933594 C 0.191406 7.90625 0.183594 7.871094 0.183594 7.835938 C 0.183594 7.800781 0.195312 7.765625 0.214844 7.738281 C 0.234375 7.710938 0.261719 7.695312 0.289062 7.695312 Z M 0.589844 6.808594 L 4.410156 6.859375 L 4.410156 7.449219 L 0.582031 7.449219 L 0.582031 6.808594 Z M 4.410156 6.636719 L 4.398438 6.636719 L 2.179688 6.671875 L 2.179688 6.652344 L 4.40625 6.378906 Z M 3.914062 6.214844 L 3.914062 6.234375 L 0.578125 6.566406 L 0.578125 5.882812 L 0.589844 5.882812 Z M 4.410156 5.816406 L 4.410156 6.074219 L 4.398438 6.074219 L 2.316406 5.816406 L 2.316406 5.796875 Z M 4.410156 5.011719 L 4.410156 5.589844 L 0.582031 5.636719 L 0.582031 5.011719 Z M 4.714844 4.488281 C 4.746094 4.492188 4.773438 4.507812 4.792969 4.53125 C 4.8125 4.5625 4.824219 4.597656 4.824219 4.632812 C 4.824219 4.667969 4.8125 4.699219 4.792969 4.726562 C 4.773438 4.753906 4.746094 4.769531 4.714844 4.769531 L 4.589844 4.769531 L 4.589844 4.488281 Z M 4.410156 4.488281 L 4.410156 4.769531 L 0.582031 4.769531 L 0.582031 4.488281 Z M 0.398438 4.488281 L 0.398438 4.769531 L 0.289062 4.769531 C 0.261719 4.769531 0.234375 4.753906 0.214844 4.726562 C 0.171875 4.671875 0.171875 4.589844 0.214844 4.53125 C 0.234375 4.507812 0.261719 4.492188 0.289062 4.488281 Z M 4.410156 3.578125 L 4.410156 4.246094 L 0.582031 4.246094 L 0.582031 3.582031 Z M 4.410156 2.683594 L 4.410156 3.339844 L 0.582031 3.339844 L 0.582031 2.6875 Z M 4.410156 2.441406 L 0.582031 2.441406 L 0.582031 1.898438 L 0.589844 1.898438 L 4.410156 1.679688 Z M 0.589844 1.378906 L 3.410156 1.503906 L 3.410156 1.519531 L 0.582031 1.652344 L 0.582031 1.378906 Z M 4.410156 1.34375 L 4.398438 1.34375 L 0.578125 1.128906 L 0.578125 0.632812 L 4.40625 0.632812 Z M 4.410156 1.34375 "/>
</g>
</svg>
